<?xml version="1.0" encoding="UTF-8" standalone="no"?>
<svg
   xmlns:dc="http://purl.org/dc/elements/1.1/"
   xmlns:cc="http://creativecommons.org/ns#"
   xmlns:rdf="http://www.w3.org/1999/02/22-rdf-syntax-ns#"
   xmlns:svg="http://www.w3.org/2000/svg"
   xmlns="http://www.w3.org/2000/svg"
   xmlns:xlink="http://www.w3.org/1999/xlink"
   id="svg8"
   version="1.1"
   viewBox="0 0 149.67857 48.002982"
   height="181.42859"
   width="565.71429">
  <defs
     id="defs2">
    <linearGradient
       id="linearGradient835">
      <stop
         id="stop831"
         offset="0"
         style="stop-color:#5d4037;stop-opacity:1;" />
      <stop
         style="stop-color:#5d4037;stop-opacity:1"
         offset="0.17946391"
         id="stop839" />
      <stop
         id="stop833"
         offset="1"
         style="stop-color:#5d4037;stop-opacity:0;" />
    </linearGradient>
    <linearGradient
       id="linearGradient821">
      <stop
         id="stop817"
         offset="0"
         style="stop-color:#5d4037;stop-opacity:1" />
      <stop
         style="stop-color:#c29764;stop-opacity:1;"
         offset="0.59874523"
         id="stop825" />
      <stop
         id="stop827"
         offset="0.88108772"
         style="stop-color:#fac87e;stop-opacity:1;" />
      <stop
         id="stop819"
         offset="1"
         style="stop-color:#ffe0b2;stop-opacity:1" />
    </linearGradient>
    <linearGradient
       gradientTransform="matrix(1,0,0,0.66193183,0,96.693063)"
       gradientUnits="userSpaceOnUse"
       y2="231.23215"
       x2="69.73661"
       y1="297.75595"
       x1="69.73661"
       id="linearGradient823"
       xlink:href="#linearGradient821" />
    <linearGradient
       gradientTransform="matrix(1,0,0,2.2698764,0,-382.10571)"
       gradientUnits="userSpaceOnUse"
       y2="289.42532"
       x2="77.10714"
       y1="299.08337"
       x1="77.10714"
       id="linearGradient837"
       xlink:href="#linearGradient835" />
    <filter
       height="1.4083088"
       y="-0.2041544"
       width="1.0085764"
       x="-0.0042882201"
       id="filter899"
       style="color-interpolation-filters:sRGB">
      <feGaussianBlur
         id="feGaussianBlur901"
         stdDeviation="0.26743944" />
    </filter>
  </defs>
  <metadata
     id="metadata5">
    <rdf:RDF>
      <cc:Work
         rdf:about="">
        <dc:format>image/svg+xml</dc:format>
        <dc:type
           rdf:resource="http://purl.org/dc/dcmitype/StillImage" />
        <dc:title></dc:title>
      </cc:Work>
    </rdf:RDF>
  </metadata>
  <g
     transform="translate(-0.75595242,-249.75298)"
     id="layer1">
    <path
       id="path829"
       d="m 0.75595242,274.8884 6.16e-6,22.86756 c 0,0 8.12077582,0.9719 12.28421942,2.01325 8.516146,2.13008 17.135171,0.63523 25.70238,0.42899 6.616911,-0.15935 13.226486,-1.32266 19.843749,-1.28693 5.672777,0.0307 11.336315,1.18535 17.008931,1.28693 7.182429,0.1287 14.363375,-0.53778 21.544643,-0.85794 5.795889,-0.25841 11.593119,-0.41955 17.386909,-0.85797 5.60919,-0.42445 12.74718,1.76576 19.08779,1.11891 14.82519,-1.51243 16.81995,-1.84524 16.81995,-1.84524 l -1e-5,-22.43858 z"
       style="fill:url(#linearGradient837);fill-opacity:1;stroke:none;stroke-width:0.39862409px;stroke-linecap:butt;stroke-linejoin:miter;stroke-opacity:1" />
    <rect
       y="249.75298"
       x="0.75595242"
       height="44.034229"
       width="149.67857"
       id="rect815"
       style="opacity:1;fill:url(#linearGradient823);fill-opacity:1;stroke:none;stroke-width:1.72210288;stroke-linecap:round;stroke-linejoin:round;stroke-miterlimit:4;stroke-dasharray:none;stroke-dashoffset:0;stroke-opacity:1" />
    <path
       style="fill:none;fill-opacity:1;stroke:#583d36;stroke-width:1.24565826;stroke-linecap:square;stroke-linejoin:miter;stroke-miterlimit:4;stroke-dasharray:4.98263302,2.49131651,1.24565826,2.49131651;stroke-dashoffset:0;stroke-opacity:1;filter:url(#filter899)"
       d="m 0.75595858,297.22679 c 0,0 8.12077582,0.9719 12.28421942,2.01325 8.516146,2.13008 17.135171,0.63523 25.70238,0.42899 6.616911,-0.15935 13.226486,-1.32266 19.843749,-1.28693 5.672777,0.0307 11.336315,1.18535 17.008931,1.28693 7.182429,0.1287 14.363375,-0.53778 21.544643,-0.85794 5.795889,-0.25841 11.593119,-0.41955 17.386909,-0.85797 5.60919,-0.42445 12.74718,1.76576 19.08779,1.11891 14.82519,-1.51243 16.81995,-1.84524 16.81995,-1.84524"
       id="path841" />
  </g>
</svg>
